<?xml version="1.0" encoding="UTF-8"?>
<svg xmlns="http://www.w3.org/2000/svg" xmlns:xlink="http://www.w3.org/1999/xlink" width="24px" height="24px" viewBox="0 0 24 24" version="1.1">
<g id="surface1">
<path style=" stroke:none;fill-rule:nonzero;fill:rgb(100%,100%,100%);fill-opacity:1;" d="M 15.75 21.375 L 8.25 21.375 C 5.144531 21.375 2.625 18.855469 2.625 15.75 L 2.625 8.25 C 2.625 5.144531 5.144531 2.625 8.25 2.625 L 13.125 2.625 C 16.230469 2.625 18.75 5.144531 18.75 8.25 L 18.75 8.4375 C 18.75 8.957031 19.167969 9.375 19.6875 9.375 C 20.621094 9.375 21.375 10.128906 21.375 11.0625 L 21.375 15.75 C 21.375 18.855469 18.855469 21.375 15.75 21.375 Z M 8.25 3.375 C 5.558594 3.375 3.375 5.558594 3.375 8.25 L 3.375 15.75 C 3.375 18.441406 5.558594 20.625 8.25 20.625 L 15.75 20.625 C 18.441406 20.625 20.625 18.441406 20.625 15.75 L 20.625 11.0625 C 20.625 10.542969 20.207031 10.125 19.6875 10.125 C 18.753906 10.125 18 9.371094 18 8.4375 L 18 8.25 C 18 5.558594 15.816406 3.375 13.125 3.375 Z M 8.25 3.375 "/>
<path style=" stroke:none;fill-rule:nonzero;fill:rgb(100%,100%,100%);fill-opacity:1;" d="M 13.3125 10.125 L 9.1875 10.125 C 8.253906 10.125 7.5 9.371094 7.5 8.4375 C 7.5 7.503906 8.253906 6.75 9.1875 6.75 L 13.3125 6.75 C 14.246094 6.75 15 7.503906 15 8.4375 C 15 9.371094 14.246094 10.125 13.3125 10.125 Z M 9.1875 7.5 C 8.667969 7.5 8.25 7.917969 8.25 8.4375 C 8.25 8.957031 8.667969 9.375 9.1875 9.375 L 13.3125 9.375 C 13.832031 9.375 14.25 8.957031 14.25 8.4375 C 14.25 7.917969 13.832031 7.5 13.3125 7.5 Z M 9.1875 7.5 "/>
<path style=" stroke:none;fill-rule:nonzero;fill:rgb(100%,100%,100%);fill-opacity:1;" d="M 15.5625 16.875 L 9.1875 16.875 C 8.253906 16.875 7.5 16.121094 7.5 15.1875 C 7.5 14.253906 8.253906 13.5 9.1875 13.5 L 15.5625 13.5 C 16.496094 13.5 17.25 14.253906 17.25 15.1875 C 17.25 16.121094 16.496094 16.875 15.5625 16.875 Z M 9.1875 14.25 C 8.667969 14.25 8.25 14.667969 8.25 15.1875 C 8.25 15.707031 8.667969 16.125 9.1875 16.125 L 15.5625 16.125 C 16.082031 16.125 16.5 15.707031 16.5 15.1875 C 16.5 14.667969 16.082031 14.25 15.5625 14.25 Z M 9.1875 14.25 "/>
</g>
</svg>
