<?xml version="1.0" encoding="utf-8"?>
<!-- Generator: Adobe Illustrator 23.0.1, SVG Export Plug-In . SVG Version: 6.00 Build 0)  -->
<svg version="1.1" id="blog_1_" xmlns="http://www.w3.org/2000/svg" xmlns:xlink="http://www.w3.org/1999/xlink" x="0px" y="0px"
	 viewBox="0 0 24 24" style="enable-background:new 0 0 24 24;" xml:space="preserve">
<style type="text/css">
	.st0{fill:#FFFFFF;}
</style>
<path id="blog" class="st0" d="M2.4,1.2c1.3,0,2.4,1.1,2.4,2.4v13.2c0,1.3,1.1,2.4,2.4,2.4s2.4-1.1,2.4-2.4s-1.1-2.4-2.4-2.4
	c-0.2,0-0.4,0-0.6,0.1l0-4.9c0.2,0,0.4,0,0.6,0c4,0,7.2,3.2,7.2,7.2S11.2,24,7.2,24S0,20.8,0,16.8V3.6C0,2.3,1.1,1.2,2.4,1.2z
	 M10.8,0C18.1,0,24,5.9,24,13.2c0,0.8-0.1,1.5-0.2,2.2c-0.1,0.7-0.7,1.1-1.4,1s-1.1-0.7-1-1.4c0.1-0.6,0.2-1.2,0.2-1.8
	c0-6-4.8-10.8-10.8-10.8c-0.7,0-1.2-0.5-1.2-1.2S10.1,0,10.8,0z M10.8,4.8c4.6,0,8.4,3.8,8.4,8.4c0,0.5,0,1-0.1,1.5
	c-0.1,0.7-0.7,1.1-1.4,1c-0.7-0.1-1.1-0.7-1-1.4c0.1-0.4,0.1-0.7,0.1-1.1c0-3.3-2.7-6-6-6c-0.7,0-1.2-0.5-1.2-1.2S10.1,4.8,10.8,4.8
	z"/>
</svg>
